<?xml version="1.0" encoding="UTF-8" standalone="no"?>
<!DOCTYPE svg PUBLIC "-//W3C//DTD SVG 1.1//EN"
 "http://www.w3.org/Graphics/SVG/1.1/DTD/svg11.dtd">
<!-- Generated by graphviz version 2.49.3 (20211023.0002)
 -->
<!-- Title: pic/ICPS ETL Pages: 1 -->
<svg width="854pt" height="450pt"
 viewBox="0.00 0.00 854.00 450.00" xmlns="http://www.w3.org/2000/svg" xmlns:xlink="http://www.w3.org/1999/xlink">
<g id="graph0" class="graph" transform="scale(1 1) rotate(0) translate(144 306)">
<title>pic/ICPS ETL</title>
<polygon fill="white" stroke="transparent" points="-144,144 -144,-306 710,-306 710,144 -144,144"/>
<text text-anchor="middle" x="283" y="-9" font-family="Sans-Serif" font-size="15.00" fill="#2d3436">pic/ICPS ETL</text>
<!-- 59eb7604b3d244729eb2fe4f2ea6d37b -->
<g id="node1" class="node">
<title>59eb7604b3d244729eb2fe4f2ea6d37b</title>
<image xlink:href="C:\Users\JR100\Anaconda3\lib\site-packages\resources/onprem/compute\server.png" width="101px" height="101px" preserveAspectRatio="xMinYMin meet" x="0" y="-144"/>
<text text-anchor="middle" x="50.5" y="-28.6" font-family="Sans-Serif" font-size="13.00" fill="#2d3436">ICPS</text>
</g>
<!-- fe0985f707984ff39ad55ec7e83fa987 -->
<g id="node2" class="node">
<title>fe0985f707984ff39ad55ec7e83fa987</title>
<image xlink:href="C:\Users\JR100\Anaconda3\lib\site-packages\resources/onprem/compute\server.png" width="101px" height="101px" preserveAspectRatio="xMinYMin meet" x="155" y="-144"/>
<text text-anchor="middle" x="205.5" y="-28.6" font-family="Sans-Serif" font-size="13.00" fill="#2d3436">ODS</text>
</g>
<!-- 59eb7604b3d244729eb2fe4f2ea6d37b&#45;&gt;fe0985f707984ff39ad55ec7e83fa987 -->
<g id="edge1" class="edge">
<title>59eb7604b3d244729eb2fe4f2ea6d37b&#45;&gt;fe0985f707984ff39ad55ec7e83fa987</title>
<path fill="none" stroke="#7b8894" d="M101.25,-93.5C101.25,-93.5 144.9,-93.5 144.9,-93.5"/>
<polygon fill="#7b8894" stroke="#7b8894" points="144.9,-97 154.9,-93.5 144.9,-90 144.9,-97"/>
</g>
<!-- efea0b6a35c244e782059febc4a70f26 -->
<g id="node3" class="node">
<title>efea0b6a35c244e782059febc4a70f26</title>
<image xlink:href="C:\Users\JR100\Anaconda3\lib\site-packages\resources/programming/language\python.png" width="101px" height="101px" preserveAspectRatio="xMinYMin meet" x="310" y="-144"/>
</g>
<!-- fe0985f707984ff39ad55ec7e83fa987&#45;&gt;efea0b6a35c244e782059febc4a70f26 -->
<g id="edge2" class="edge">
<title>fe0985f707984ff39ad55ec7e83fa987&#45;&gt;efea0b6a35c244e782059febc4a70f26</title>
<path fill="none" stroke="#7b8894" d="M256.25,-93.5C256.25,-93.5 299.9,-93.5 299.9,-93.5"/>
<polygon fill="#7b8894" stroke="#7b8894" points="299.9,-97 309.9,-93.5 299.9,-90 299.9,-97"/>
</g>
<!-- d37d8ba926754312966fea09d4bd5a1e -->
<g id="node4" class="node">
<title>d37d8ba926754312966fea09d4bd5a1e</title>
<image xlink:href="C:\Users\JR100\Anaconda3\lib\site-packages\resources/aws/database\rds.png" width="101px" height="101px" preserveAspectRatio="xMinYMin meet" x="465" y="-144"/>
<text text-anchor="middle" x="515.5" y="-28.6" font-family="Sans-Serif" font-size="13.00" fill="#2d3436">ods_dev</text>
</g>
<!-- efea0b6a35c244e782059febc4a70f26&#45;&gt;d37d8ba926754312966fea09d4bd5a1e -->
<g id="edge3" class="edge">
<title>efea0b6a35c244e782059febc4a70f26&#45;&gt;d37d8ba926754312966fea09d4bd5a1e</title>
<path fill="none" stroke="#7b8894" d="M411.25,-93.5C411.25,-93.5 454.9,-93.5 454.9,-93.5"/>
<polygon fill="#7b8894" stroke="#7b8894" points="454.9,-97 464.9,-93.5 454.9,-90 454.9,-97"/>
</g>
</g>
</svg>
